X Lossless Decoder version 20110417 (131.0)

XLD extraction logfile from 2011-04-30 10:06:47 +0900

Electric Light Orchestra / Electric Light Orchestra II

Used drive : HL-DT-ST BD-RE  BH10NS30 (revision EL00)

Ripper mode             : CDParanoia III 10.2
Disable audio cache     : OK for the drive with a cache less than 2750KiB
Make use of C2 pointers : NO
Read offset correction  : 667
Max retry count         : 100
Gap status              : Analyzed, Appended

TOC of the extracted CD
     Track |   Start  |  Length  | Start sector | End sector 
    ---------------------------------------------------------
        1  | 00:00:00 | 06:57:10 |         0    |    31284   
        2  | 06:57:10 | 07:04:30 |     31285    |    63114   
        3  | 14:01:40 | 08:09:72 |     63115    |    99861   
        4  | 22:11:37 | 08:22:58 |     99862    |   137569   
        5  | 30:34:20 | 11:21:62 |    137570    |   188706   

AccurateRip Summary
    Disc not found in AccurateRip DB.

All Tracks
    Filename : /Users/angelicalbite/Music/flac/Electric Light Orchestra II.flac
    CRC32 hash             : 34B83982
    CRC32 hash (skip zero) : CCF3A3B1
    Statistics
        Read error                           : 0
        Skipped (treated as error)           : 0
        Edge jitter error (maybe fixed)      : 0
        Atom jitter error (maybe fixed)      : 1
        Drift error (maybe fixed)            : 0
        Dropped bytes error (maybe fixed)    : 0
        Duplicated bytes error (maybe fixed) : 0

Track 01
    Pre-gap length : 00:02:00

    CRC32 hash             : 9AC94D66
    CRC32 hash (skip zero) : 9690F5CA
    AccurateRip signature  : A6B10DB2
        ->Track not present in AccurateRip database.
    Statistics
        Read error                           : 0
        Skipped (treated as error)           : 0
        Edge jitter error (maybe fixed)      : 0
        Atom jitter error (maybe fixed)      : 1
        Drift error (maybe fixed)            : 0
        Dropped bytes error (maybe fixed)    : 0
        Duplicated bytes error (maybe fixed) : 0

Track 02

    CRC32 hash             : 0DDDC247
    CRC32 hash (skip zero) : 87E3F2B6
    AccurateRip signature  : C3784EB2
        ->Track not present in AccurateRip database.
    Statistics
        Read error                           : 0
        Skipped (treated as error)           : 0
        Edge jitter error (maybe fixed)      : 0
        Atom jitter error (maybe fixed)      : 0
        Drift error (maybe fixed)            : 0
        Dropped bytes error (maybe fixed)    : 0
        Duplicated bytes error (maybe fixed) : 0

Track 03

    CRC32 hash             : C154CB6F
    CRC32 hash (skip zero) : 6814C231
    AccurateRip signature  : 6532DCD8
        ->Track not present in AccurateRip database.
    Statistics
        Read error                           : 0
        Skipped (treated as error)           : 0
        Edge jitter error (maybe fixed)      : 0
        Atom jitter error (maybe fixed)      : 0
        Drift error (maybe fixed)            : 0
        Dropped bytes error (maybe fixed)    : 0
        Duplicated bytes error (maybe fixed) : 0

Track 04

    CRC32 hash             : 17639A33
    CRC32 hash (skip zero) : DF808940
    AccurateRip signature  : 52EF6B8D
        ->Track not present in AccurateRip database.
    Statistics
        Read error                           : 0
        Skipped (treated as error)           : 0
        Edge jitter error (maybe fixed)      : 0
        Atom jitter error (maybe fixed)      : 0
        Drift error (maybe fixed)            : 0
        Dropped bytes error (maybe fixed)    : 0
        Duplicated bytes error (maybe fixed) : 0

Track 05

    CRC32 hash             : 35ED19A2
    CRC32 hash (skip zero) : D911C53B
    AccurateRip signature  : CACE5510
        ->Track not present in AccurateRip database.
    Statistics
        Read error                           : 0
        Skipped (treated as error)           : 0
        Edge jitter error (maybe fixed)      : 0
        Atom jitter error (maybe fixed)      : 0
        Drift error (maybe fixed)            : 0
        Dropped bytes error (maybe fixed)    : 0
        Duplicated bytes error (maybe fixed) : 0

No errors occurred

End of status report
